<svg fill="#FFFF00" xmlns="http://www.w3.org/2000/svg"  viewBox="0 0 64 64" width="128px" height="128px"><path fill-rule="evenodd" d="M52.451,29.433c-0.075-0.253-0.199-0.488-0.368-0.694 c-0.639-1.197-1.169-2.136-1.49-2.695c0.164-2.314,0.361-9.858-3.446-14.791c-3.484-4.516-10.681-4.744-11.531-4.754 c-0.523-0.033-1.049-0.051-1.573-0.066V6.406c0-1.104-0.896-2-2-2s-2,0.896-2,2v0.038c-0.539,0.016-1.066,0.035-1.568,0.055 c-0.311,0.011-7.64,0.317-11.435,4.659c-3.197,3.659-3.486,12.079-3.497,14.687c-0.019,0.067-0.036,0.135-0.048,0.203 c-0.319,0.555-0.84,1.481-1.473,2.665c-0.185,0.219-0.318,0.472-0.395,0.745c-2.636,5.02-6.679,13.632-6.581,19.077 c0.157,8.596,20.638,10.18,26.91,10.461C31.986,59,32.016,59,32.046,59s0.06,0,0.09-0.002c0.145-0.007,6.415-0.295,12.738-1.514 c9.46-1.824,14.096-4.75,14.172-8.948C59.145,43.082,55.087,34.448,52.451,29.433z M45.046,35h-9.773 c-0.777-0.859-1.227-1.914-1.227-3c0-2.586,2.552-5,6-5c3.449,0,6,2.414,6,5C46.046,33.118,45.697,34.262,45.046,35z M34.043,10.43 c0.476,0.015,0.932,0.036,1.374,0.064c0.042,0.002,0.085,0.004,0.128,0.004c0.06,0,6.034,0.086,8.437,3.199 c1.841,2.386,2.449,5.782,2.618,8.447c-0.793-0.457-1.624-0.817-2.499-1.081c-0.511-0.169-1.15-0.352-2.055-0.562l2-1.5 c0.036-1.196,0.027-2.024-0.805-2.994c-2.307-2.692-6.652-3.342-9.198-3.484V10.43z M31.043,14c0-0.552,0.447-1,1-1s1,0.448,1,1 v7.5c0,0.552-0.447,1-1,1s-1-0.448-1-1V14z M30.046,32c0,1.086-0.449,2.141-1.226,3h-9.774c-0.777-0.859-1-1.914-1-3 c0-2.586,2.552-5,6-5C27.495,27,30.046,29.414,30.046,32z M20.052,13.79c2.197-2.514,6.93-3.23,8.574-3.294 c0.5-0.02,0.966-0.036,1.417-0.049v2.095c-2.527,0.138-6.74,0.785-8.997,3.458c-0.811,0.961-0.925,2.089-1,3.14l1.997,1.36 c-0.701,0.14-1.303,0.317-1.86,0.511c-0.855,0.243-1.668,0.577-2.444,1C18.049,18.753,18.756,15.273,20.052,13.79z M40.202,49.218 c-0.018,0.041-0.025,0.086-0.04,0.128L34.046,40h-0.003c0,0.128-0.015,0.251-0.03,0.373c-0.017,0.142-0.045,0.279-0.081,0.412 c-0.003,0.012-0.006,0.025-0.009,0.037c-0.034,0.122-0.077,0.239-0.125,0.352c-0.01,0.023-0.019,0.046-0.03,0.068 c-0.046,0.101-0.099,0.197-0.155,0.288c-0.02,0.032-0.04,0.062-0.061,0.092c-0.054,0.079-0.111,0.154-0.172,0.223 c-0.033,0.037-0.068,0.072-0.103,0.106c-0.056,0.056-0.114,0.111-0.175,0.16c-0.05,0.039-0.102,0.072-0.155,0.105 c-0.054,0.035-0.107,0.072-0.165,0.101c-0.071,0.035-0.145,0.06-0.219,0.085c-0.046,0.016-0.09,0.037-0.137,0.048 c-0.125,0.03-0.253,0.049-0.384,0.049c-0.131,0-0.258-0.018-0.382-0.048c-0.043-0.01-0.083-0.029-0.125-0.043 c-0.078-0.026-0.156-0.052-0.23-0.089c-0.049-0.025-0.095-0.056-0.143-0.085c-0.061-0.038-0.122-0.076-0.179-0.122 c-0.049-0.039-0.096-0.082-0.143-0.127c-0.048-0.045-0.094-0.093-0.139-0.143c-0.047-0.054-0.092-0.11-0.135-0.169 c-0.036-0.049-0.069-0.101-0.102-0.154c-0.042-0.068-0.083-0.138-0.119-0.212c-0.025-0.05-0.046-0.103-0.067-0.155 c-0.035-0.083-0.069-0.167-0.097-0.255c-0.014-0.046-0.023-0.095-0.036-0.142c-0.025-0.099-0.051-0.199-0.067-0.303 c-0.021-0.146-0.037-0.295-0.037-0.449L24.046,49.5h2.997v-1.874l2-1.25V49.5h2v-4.375l1-0.625l1,0.608V49.5h2v-3.175l2,1.217V49.5 h3.071c-0.042,0.164-0.072,0.331-0.072,0.501L40.044,52H24.043v-2c0-0.269-0.054-0.535-0.159-0.782l-1.018-2.394L31.046,35h1.997 L41.2,46.87L40.202,49.218z" clip-rule="evenodd"/><polygon fill-rule="evenodd" points="32.045,37.5 32.045,37.5 32.045,37.5" clip-rule="evenodd"/></svg>